<svg width="24" height="96" viewBox="0 0 24 96" fill="none" xmlns="http://www.w3.org/2000/svg">
<g clip-path="url(#clip0_1435_5209)">
<path fill-rule="evenodd" clip-rule="evenodd" d="M0.226663 32.2061C4.77332 45.1521 8.45332 59.3564 6.01777 74.4788C5.33777 74.4788 4.7911 75.0613 4.78221 75.7743L4.4711 93.017C4.4711 93.73 3.91555 94.3126 3.23555 94.3126V95.7619H20.7733V94.3126C20.0933 94.3126 19.5378 93.73 19.5378 93.017L19.2267 75.7743C19.2133 75.0613 18.6711 74.4788 17.9911 74.4788C15.5555 59.3564 19.2311 45.1521 23.7822 32.2061C24.4578 30.2861 22.68 28.464 20.7111 27.9047V26.7583H21.1778C21.3644 26.7583 21.52 26.5999 21.52 26.3995V25.9708C21.52 25.775 21.3689 25.6119 21.1778 25.6119H20.7111L16.36 16.8275H13.9555C14.0489 16.6597 14.0578 16.4733 14.08 16.3521C14.1244 16.1378 14.2355 16.1051 14.2844 15.9187C14.3333 15.7323 14.32 15.3921 14.3244 15.0985C14.3333 14.8049 14.36 14.5486 14.4711 14.3809C14.5867 14.2084 14.7822 14.1199 14.9111 13.9661C15.0355 13.8123 15.0844 13.5979 15.2044 13.1785C15.3244 12.7591 15.5111 12.1346 15.6311 11.7805C15.7555 11.4263 15.8133 11.3378 15.8444 11.2119C15.8755 11.0861 15.88 10.9183 15.9155 10.7739C15.9511 10.6294 16.0222 10.5036 16.0533 10.3498C16.0889 10.196 16.0889 10.0096 16.0889 9.80921C16.0889 9.60882 16.0889 9.39445 16.1333 9.2593C16.1778 9.12416 16.2622 9.06824 16.3511 8.70008C16.4355 8.33193 16.5244 7.6562 16.6222 7.12494C16.7244 6.59367 16.8355 6.20688 16.9689 5.83872C17.1022 5.47057 17.2578 5.12571 17.3955 4.81348C17.5333 4.50124 17.6489 4.23095 17.7778 4.06318C17.9067 3.89542 18.04 3.83483 18.1822 3.76027C18.3244 3.68571 18.4711 3.60182 18.5955 3.48066C18.72 3.35949 18.8267 3.21037 18.8711 3.02396C18.9155 2.83755 18.9022 2.61852 18.8489 2.44144C18.7955 2.26435 18.7067 2.12454 18.5733 2.04066C18.44 1.96144 18.2667 1.93813 18.0622 1.95678C17.8578 1.97542 17.6222 2.036 17.4089 2.07794C17.1955 2.11522 17.0044 2.1292 16.8355 2.13852C16.6667 2.14784 16.5155 2.1525 16.3644 2.15716C16.3289 2.12454 16.2933 2.09192 16.2533 2.05464C16.3155 1.91949 16.3822 1.78901 16.4044 1.6492C16.4311 1.5094 16.4133 1.36959 16.3822 1.1925C16.3511 1.02008 16.2978 0.815028 16.2222 0.647261C16.1467 0.479494 16.04 0.353667 15.8889 0.288424C15.7378 0.223181 15.5378 0.223181 15.3555 0.255802C15.1778 0.288424 15.0178 0.353667 14.8844 0.460851C14.7511 0.563377 14.64 0.707843 14.5911 0.87095C14.5422 1.03406 14.5511 1.22046 14.5644 1.38357C14.5778 1.54668 14.5955 1.68648 14.5955 1.80765C14.5955 1.92881 14.5778 2.04066 14.6044 2.15716C14.6355 2.27367 14.7111 2.39017 14.7422 2.47406C14.7733 2.55328 14.76 2.59988 14.7111 2.64182C14.6622 2.68843 14.5733 2.73503 14.4311 2.76765C14.2889 2.80027 14.0889 2.81891 13.9378 2.86085C13.7867 2.90279 13.6889 2.96338 13.5733 3.05192C13.4578 3.14046 13.3333 3.25231 13.2444 3.39212C13.1555 3.53192 13.1067 3.69037 13.0089 3.84881C12.9111 4.00726 12.7644 4.15639 12.6089 4.34279C12.4533 4.52454 12.2889 4.73892 12.1733 4.91134C12.0533 5.07911 11.9822 5.20494 11.9244 5.33076C11.8667 5.46125 11.8178 5.59173 11.7422 5.7362C11.6622 5.88066 11.5511 6.03911 11.4355 6.19756C11.4 6.07639 11.3644 5.95989 11.3155 5.84338C11.2711 5.72688 11.2178 5.61037 11.0978 5.54047C10.9778 5.47057 10.7955 5.44727 10.5955 5.42862C10.3955 5.40998 10.1733 5.396 10.0133 5.33542C9.85332 5.2795 9.75555 5.17697 9.53777 5.19562C9.31999 5.21426 8.98666 5.35406 8.80888 5.54979C8.63555 5.74552 8.61777 5.99717 8.55555 6.16027C8.49332 6.31872 8.37777 6.38862 8.17777 6.55639C7.97777 6.72416 7.68444 6.99911 7.49777 7.32998C7.3111 7.66552 7.2311 8.06163 7.24444 8.43445C7.25777 8.80727 7.37332 9.16144 7.50221 9.6461C7.6311 10.1308 7.77332 10.7459 7.99999 11.1327C8.22666 11.5195 8.53333 11.6779 8.7511 11.7805C8.96888 11.883 9.09777 11.9389 9.22221 11.9902C9.34666 12.1859 9.46666 12.3816 9.51555 12.5587C9.56444 12.7358 9.53333 12.8989 9.60444 13.0807C9.67555 13.2578 9.84444 13.4535 9.95555 13.6911C10.0667 13.9288 10.1244 14.2038 10.1022 14.3576C10.08 14.5113 9.97777 14.544 9.9511 14.6139C9.91999 14.6791 9.95999 14.7816 9.9911 14.9494C10.0222 15.1172 10.04 15.3502 10.0267 15.5412C10.0178 15.7323 9.97333 15.8861 9.91999 15.9979C9.86666 16.1098 9.79555 16.175 9.81777 16.3708C9.8311 16.4966 9.87999 16.669 9.96888 16.8275H7.63999L3.28888 25.6119H2.82222C2.63555 25.6119 2.48 25.7704 2.48 25.9708V26.3995C2.48 26.5952 2.63111 26.7583 2.82222 26.7583H3.28888V27.9047C1.32888 28.464 -0.448894 30.2814 0.226663 32.2061ZM11.7911 9.66008C11.92 9.6228 12.0444 9.59018 12.1422 9.51095C12.24 9.43173 12.3111 9.30591 12.3778 9.19406C12.4444 9.08222 12.5022 8.98435 12.5289 8.87717C12.56 8.77464 12.56 8.66746 12.5511 8.54629C12.5467 8.42513 12.5333 8.28998 12.5111 8.15484C12.4889 8.01969 12.4489 7.88921 12.3911 7.81464C12.3333 7.74008 12.2489 7.72144 12.1822 7.67018C12.1155 7.61892 12.0711 7.53037 12.0222 7.44649C12.1067 7.32066 12.1911 7.19484 12.2578 7.05503C12.3244 6.91523 12.3778 6.7661 12.4533 6.59367C12.5289 6.42125 12.6222 6.23484 12.7467 6.02047C12.8711 5.8061 13.0267 5.57309 13.1822 5.41464C13.3422 5.2562 13.5022 5.18163 13.6222 5.12571C13.7422 5.06513 13.8222 5.02785 13.9022 4.98591C13.8933 5.08843 13.8844 5.18629 13.8622 5.40066C13.84 5.61503 13.8089 5.94125 13.8178 6.23484C13.8267 6.52843 13.8711 6.7894 13.88 7.02707C13.8889 7.26474 13.8667 7.47445 13.7911 7.6562C13.7111 7.83794 13.5733 7.99173 13.4933 8.19678C13.4133 8.40183 13.3822 8.65814 13.3467 8.90047C13.3111 9.1428 13.2622 9.36649 13.2622 9.55756C13.2578 9.75328 13.3022 9.91639 13.3689 10.0888C13.4355 10.2612 13.5289 10.4383 13.6222 10.648C13.7155 10.8578 13.8044 11.1001 13.8444 11.2865C13.88 11.4776 13.8667 11.6127 13.84 11.8178C13.8133 12.0228 13.7778 12.2884 13.7378 12.5401C13.7022 12.7917 13.6622 13.0247 13.6222 13.2578C13.5422 13.2438 13.4622 13.2345 13.3867 13.2251C13.3067 13.2158 13.2311 13.2065 13.0978 13.2345C12.9689 13.2578 12.7822 13.3183 12.6622 13.337C12.5422 13.3556 12.4844 13.3323 12.4267 13.3137C12.4444 13.1878 12.4578 13.0667 12.4444 12.9642C12.4311 12.8616 12.3867 12.7824 12.3778 12.7125C12.3689 12.6426 12.3911 12.582 12.3733 12.4981C12.3555 12.4143 12.2978 12.3117 12.2622 12.2232C12.2267 12.1346 12.2089 12.0647 12.2178 11.9436C12.2267 11.8224 12.2622 11.6453 12.1955 11.3005C12.1289 10.9556 11.9689 10.443 11.88 10.1447C11.8044 9.83251 11.7955 9.74396 11.7911 9.66008Z" fill="#91172C"/>
</g>
<defs>
<clipPath id="clip0_1435_5209">
<rect width="24" height="96" fill="white"/>
</clipPath>
</defs>
</svg>
