<svg width="57" height="86" viewBox="0 0 57 86" fill="none" xmlns="http://www.w3.org/2000/svg">
<g clip-path="url(#clip0_1435_5213)">
<path fill-rule="evenodd" clip-rule="evenodd" d="M41.9028 19.2367C41.9028 19.2367 43.3922 15.4648 47.4876 15.4648C53.4443 15.4648 56.795 20.7769 56.795 28.2894C56.795 45.6405 32.5953 55.8244 32.5953 55.8244C32.5953 55.8244 33.7123 56.5787 33.7123 58.4649C33.7123 60.728 31.1062 61.105 31.1062 61.105C31.1062 61.105 31.3589 65.6317 33.7123 69.0262C35.6702 71.8508 41.1581 75.0612 41.1581 75.0612H15.8418C15.8418 75.0612 21.3298 71.8508 23.2878 69.0262C25.6411 65.6317 25.8939 61.105 25.8939 61.105C25.8939 61.105 23.2878 60.728 23.2878 58.4649C23.2878 56.5787 24.4047 55.8244 24.4047 55.8244C24.4047 55.8244 0.205078 45.6405 0.205078 28.2894C0.205078 20.7769 3.5558 15.4648 9.51264 15.4648C13.6079 15.4648 15.0972 19.2367 15.0972 19.2367H41.9028ZM45.2535 18.4824C47.8599 15.842 54.5613 19.2367 54.5613 25.2719C54.5613 35.456 50.8067 39.9278 46.3706 44.5087C42.6418 48.3591 34.4569 52.4299 34.4569 52.4299C34.4569 52.4299 38.212 43.9685 39.6691 38.4736C41.0154 33.3962 41.4353 25.2378 41.5153 23.3893C41.526 23.1476 41.6457 22.9051 41.8815 22.8667C42.0189 22.8444 42.169 22.8661 42.2752 23.0087C42.5881 23.4291 43.3045 24.806 43.7645 25.2719C45.9982 27.535 47.1152 24.8947 46.3706 24.1403C45.6259 23.3859 42.6475 21.1227 45.2535 18.4824ZM11.7464 18.4824C9.14034 15.842 2.43889 19.2367 2.43889 25.2719C2.43889 35.456 6.19352 39.9278 10.6296 44.5087C14.3583 48.3591 22.5432 52.4299 22.5432 52.4299C22.5432 52.4299 18.7881 43.9685 17.331 38.4736C15.9846 33.3962 15.5649 25.2378 15.4848 23.3893C15.4743 23.1476 15.3544 22.9051 15.1186 22.8667C14.981 22.8444 14.831 22.8661 14.7249 23.0087C14.412 23.4291 13.6954 24.806 13.2356 25.2719C11.0018 27.535 9.88495 24.8947 10.6296 24.1403C11.3741 23.3859 14.3526 21.1227 11.7464 18.4824Z" fill="#91172C"/>
<path d="M41.9028 77.3242L43.7645 85.9998H13.2356L15.0971 77.3242H41.9028Z" fill="#91172C"/>
<path fill-rule="evenodd" clip-rule="evenodd" d="M26.3907 7.70605C27.0068 8.08187 27.7285 8.29803 28.5 8.29803C29.2716 8.29803 29.9933 8.08187 30.6094 7.70605C31.3538 9.08715 32.2749 10.4417 33.34 11.3156C36.1984 13.6608 41.9028 14.3331 41.9028 14.3331V16.9735H15.0972V14.3331C15.0972 14.3331 20.8017 13.6608 23.6601 11.3156C24.7252 10.4417 25.6463 9.08715 26.3907 7.70605Z" fill="#91172C"/>
<path d="M28.5001 0C26.2383 0 24.4048 1.85763 24.4048 4.14913C24.4048 5.65893 25.2007 6.98041 26.3907 7.70627C27.0068 8.08208 27.7285 8.29825 28.5001 8.29825C29.2716 8.29825 29.9934 8.08208 30.6095 7.70627C31.7994 6.98041 32.5954 5.65893 32.5954 4.14913C32.5954 1.85763 30.7619 0 28.5001 0Z" fill="#91172C"/>
</g>
<defs>
<clipPath id="clip0_1435_5213">
<rect width="57" height="86" fill="white"/>
</clipPath>
</defs>
</svg>
