<svg width="64" height="72" viewBox="0 0 64 72" fill="none" xmlns="http://www.w3.org/2000/svg">
<g clip-path="url(#clip0_1435_5207)">
<path fill-rule="evenodd" clip-rule="evenodd" d="M60.1851 0L58.9474 4.18966C58.9474 4.18966 62.5063 2.17241 63.4346 2.94828C63.8058 3.25862 63.4346 13.1897 51.366 19.3966C43.4469 23.4694 38.1268 27.0712 38.3693 33.8276C38.6367 41.2759 45.3318 43.4483 45.3318 43.4483C45.3318 43.4483 45.0648 44.741 44.5582 45.6207C43.9599 46.6597 42.0826 48.1034 42.0826 48.1034C42.0826 48.1034 44.8676 48.569 44.8676 49.3448V55.862C44.8676 55.862 46.2047 56.1204 46.4149 56.6378C48.1168 60.8277 49.6641 69.6726 49.6641 69.6726C49.6641 69.6726 49.8961 72 31.871 72C13.8458 72 14.0781 69.6726 14.0781 69.6726C14.0781 69.6726 15.6253 60.8277 17.3272 56.6378C17.5374 56.1204 18.8745 55.862 18.8745 55.862V49.3448C18.8745 48.569 21.6595 48.1034 21.6595 48.1034C21.6595 48.1034 19.7821 46.6597 19.1839 45.6207C18.6773 44.741 18.4103 43.4483 18.4103 43.4483C18.4103 43.4483 25.1054 41.2759 25.3728 33.8276C25.6153 27.0712 20.2952 23.4694 12.3761 19.3966C0.307727 13.1897 -0.0636081 3.25862 0.307726 2.94828C1.23606 2.17241 4.79469 4.18966 4.79469 4.18966L3.5569 0H31.7936H31.9485H60.1851ZM31.4786 15.5172C34.0421 15.5172 36.1202 13.433 36.1202 10.8621C36.1202 8.29111 34.0421 6.2069 31.4786 6.2069C28.9151 6.2069 26.8369 8.29111 26.8369 10.8621C26.8369 13.433 28.9151 15.5172 31.4786 15.5172Z" fill="#91172C"/>
</g>
<defs>
<clipPath id="clip0_1435_5207">
<rect width="64" height="72" fill="white"/>
</clipPath>
</defs>
</svg>
