<svg width="33" height="86" viewBox="0 0 33 86" fill="none" xmlns="http://www.w3.org/2000/svg">
<g clip-path="url(#clip0_1435_5211)">
<path fill-rule="evenodd" clip-rule="evenodd" d="M16.1392 0.548785C16.3078 0.292332 16.6924 0.292332 16.861 0.548785L32.6789 24.6099C32.7467 24.7131 32.7645 24.8402 32.7277 24.9573L19.4838 67.076C19.4455 67.1979 19.4664 67.3303 19.5406 67.4351L28.7432 80.4549C28.7924 80.5246 28.8188 80.6073 28.8188 80.6916V85.5823C28.8188 85.8128 28.6269 85.9998 28.3902 85.9998H16.5001H4.60997C4.37327 85.9998 4.18141 85.8128 4.18141 85.5823V80.6916C4.18141 80.6073 4.20776 80.5246 4.25699 80.4549L13.4596 67.4351C13.5338 67.3303 13.5547 67.1979 13.5164 67.076L0.272456 24.9573C0.235611 24.8402 0.253479 24.7131 0.321324 24.6099L16.1392 0.548785ZM21.8617 39.3384C22.1714 39.0396 22.688 39.3295 22.578 39.7404L16.9148 60.8869C16.8033 61.3032 16.1968 61.3032 16.0854 60.8869L10.4222 39.7404C10.3122 39.3295 10.8288 39.0396 11.1384 39.3384L12.4078 40.5628C12.488 40.6402 12.5964 40.6836 12.7093 40.6836H16.5001H20.2908C20.4038 40.6836 20.5122 40.6402 20.5924 40.5628L21.8617 39.3384ZM20.1547 14.9038C20.4819 14.9038 20.6884 14.5611 20.529 14.2828L16.8743 7.90361C16.7108 7.61822 16.2894 7.61822 16.1259 7.90361L12.4712 14.2828C12.3118 14.5611 12.5183 14.9038 12.8454 14.9038H16.5001H20.1547Z" fill="#91172C"/>
</g>
<defs>
<clipPath id="clip0_1435_5211">
<rect width="33" height="86" fill="white"/>
</clipPath>
</defs>
</svg>
