<svg width="50" height="45" viewBox="0 0 50 45" fill="none" xmlns="http://www.w3.org/2000/svg">
<path d="M1.32825 0.189885C1.18914 0.275959 1.07984 0.458234 1.07487 0.620256C1.07487 0.681014 1.17424 0.9443 1.29348 1.20252C1.8847 2.45819 2.4163 4.46828 2.62 6.22521C2.7144 7.02519 2.69949 8.7163 2.59516 9.46565C2.29707 11.5669 1.6661 12.9744 0.528365 14.063C0.106064 14.4681 -0.0479524 14.7516 0.00669847 15.0149C0.0216032 15.0908 0.165683 15.3035 0.324667 15.4908C1.43756 16.8022 2.31197 19.5313 2.33184 21.7692C2.34178 22.6806 2.24738 23.3692 2.03872 23.9312C1.83005 24.4831 1.82011 24.6906 2.00891 24.878C2.11324 24.9894 2.20764 25.0248 2.45108 25.0552C2.7293 25.0856 2.79886 25.0704 3.21619 24.9084C4.05086 24.5793 5.43204 24.2653 6.55486 24.1489L6.8927 24.1134L6.58964 24.6501C6.42569 24.9489 6.1425 25.4349 5.95867 25.7337C4.74145 27.7387 4.45329 28.3716 4.27443 29.4399C4.08564 30.5488 4.28437 31.8044 4.86565 33.1816C5.35254 34.3461 5.89905 35.1714 6.77843 36.0929C8.27388 37.6524 10.2115 38.8271 15.2543 41.2473C19.4525 43.2574 21.4994 44.0422 23.8792 44.5586C24.5499 44.7054 25.5733 44.6852 26.3633 44.508C28.5891 44.0067 30.6807 43.1865 34.8839 41.1713C40.6818 38.3916 42.689 37.0448 44.1795 34.9335C44.8104 34.0373 45.4464 32.5588 45.6749 31.4652C45.7991 30.8627 45.7991 29.7133 45.6749 29.1614C45.4762 28.3007 45.0638 27.4197 44.1745 25.9716C43.9857 25.6628 43.6677 25.1311 43.474 24.7818C43.0517 24.0426 43.0318 24.0729 43.8665 24.1995C45.1185 24.3818 45.9979 24.5995 46.7977 24.9134C47.1952 25.0704 47.2697 25.0856 47.543 25.0552C47.9255 25.0096 48.1243 24.8425 48.1243 24.559C48.1243 24.3919 47.9901 23.9616 47.8759 23.759C47.7616 23.5565 47.6622 22.6147 47.6622 21.8198C47.6722 19.511 48.5565 16.7465 49.7191 15.42C49.8483 15.2681 49.9725 15.0858 49.9874 15.0149C50.042 14.7567 49.893 14.4782 49.4905 14.0934C48.6062 13.2377 48.0895 12.3415 47.7169 11.0403C47.0809 8.80237 47.1704 6.01762 47.9553 3.23793C48.1342 2.61009 48.5466 1.48606 48.7503 1.07594C48.9689 0.640509 48.9639 0.513929 48.7453 0.291149L48.5664 0.108874L48.2087 0.139253C47.4088 0.205075 45.9581 0.837973 44.9992 1.53669C42.9324 3.04552 41.0992 5.07586 39.7627 7.32392C38.8734 8.82262 37.999 10.9897 37.5369 12.8225C37.4723 13.0808 37.4077 13.2884 37.3928 13.2884C37.3779 13.2884 37.2289 13.1213 37.0699 12.9187C36.578 12.3162 35.1223 10.8276 34.4616 10.2656C33.3238 9.28844 31.7241 8.30618 30.4422 7.7948C29.7218 7.51126 28.8524 7.27329 28.1668 7.17202L27.5457 7.08595L27.2079 5.94673C26.7608 4.44803 26.6266 4.08854 26.2441 3.33919C25.6379 2.1544 25.4342 1.9215 24.997 1.9215C24.5499 1.9215 24.3363 2.17466 23.7003 3.44045C23.3525 4.12905 23.1339 4.75182 22.5924 6.58469L22.4384 7.09608L22.1005 7.13152C20.1132 7.33404 17.6987 8.4682 15.6319 10.1694C15.1152 10.5947 13.6247 12.0934 13.0832 12.7314C12.8347 13.0251 12.6211 13.2681 12.6012 13.2782C12.5863 13.2833 12.5317 13.1111 12.482 12.8985C12.2435 11.8453 11.4536 9.6783 10.9021 8.5644C9.52588 5.76446 7.10634 2.93413 4.74145 1.35442C3.51926 0.534182 1.75552 -0.0632742 1.32825 0.189885ZM16.869 21.8553C17.3161 21.9717 17.8576 22.2198 18.2452 22.4831C18.5433 22.6856 19.1096 23.197 19.1096 23.2628C19.1096 23.2831 18.9805 23.2476 18.8215 23.1818C17.9272 22.8173 17.0031 22.9337 16.1833 23.5211C15.6517 23.9008 15.2791 24.4274 15.14 25.0096C15.1052 25.1463 15.0754 25.4704 15.0804 25.7235C15.0854 26.9893 15.8107 27.9918 17.023 28.407C17.4006 28.5387 18.1856 28.5387 18.5631 28.407C19.0103 28.2551 19.3978 28.0222 19.686 27.7336C19.835 27.5868 19.9543 27.445 19.9543 27.4248C19.9543 27.3995 19.8897 27.3893 19.8151 27.4045C19.5618 27.44 19.2488 27.3184 19.0302 27.0906C18.3743 26.4273 18.7966 25.2881 19.6959 25.2881C19.989 25.2881 20.2325 25.3691 20.2722 25.4754C20.3467 25.6678 20.4511 26.5134 20.4511 26.9083C20.4511 28.2146 20.0685 29.2627 19.1742 30.4121C18.9407 30.7108 18.8513 30.7817 18.4489 30.9842C17.8328 31.2981 17.2366 31.4095 16.6553 31.3184C15.5822 31.1513 15.135 31.0247 14.3898 30.6703C14.0172 30.4931 13.9079 30.407 13.4905 29.9614C12.7205 29.1412 12.2485 28.3311 11.9951 27.3792C11.9106 27.0653 11.8908 26.8324 11.8858 26.2501C11.8858 25.3489 11.9901 24.8476 12.3478 24.0983C12.7652 23.2325 13.2322 22.6958 13.9476 22.2603C14.8171 21.7287 15.8554 21.5819 16.869 21.8553ZM34.6056 21.7439C35.4602 21.8553 36.1905 22.2299 36.8215 22.8831C37.3978 23.4805 37.7804 24.1945 38.0188 25.1109C38.153 25.6375 38.143 26.8425 37.999 27.3741C37.7058 28.4729 37.0848 29.4652 36.1756 30.3007C35.9073 30.5488 35.2068 30.8931 34.6205 31.0652C34.0442 31.2374 33.0804 31.3741 32.7227 31.3386C32.1712 31.2829 31.5502 31.0551 31.1229 30.7513C30.9142 30.5994 30.2783 29.7133 30.0547 29.2627C29.7666 28.6804 29.543 27.6678 29.548 26.959V26.5792L29.6374 26.8121C29.9156 27.5362 30.5615 28.1235 31.3812 28.407C31.7588 28.5387 32.5438 28.5387 32.9214 28.407C33.7114 28.1387 34.3622 27.5615 34.6404 26.883L34.71 26.7058L34.5261 26.6299C33.9846 26.3969 33.7263 25.7792 33.9598 25.2628C34.0542 25.0451 34.2976 24.802 34.4963 24.7261L34.6106 24.6805L34.4914 24.4375C34.2976 24.0476 33.9449 23.6426 33.6021 23.4249C32.8469 22.9388 32.0122 22.8578 31.1328 23.197L30.8099 23.3185L31.0335 23.0856C31.6992 22.3869 32.7028 21.8705 33.6319 21.7489C34.079 21.6882 34.1486 21.6882 34.6056 21.7439ZM28.4649 32.1437C28.8474 32.3614 28.9716 32.5437 28.9269 32.8069C28.8822 33.0297 28.5692 33.3183 28.291 33.3892C28.1717 33.4196 27.9233 33.5006 27.7296 33.5715C26.7906 33.9158 26.2441 34.0019 24.8728 34.012C23.6308 34.0221 23.5463 34.0069 22.3887 33.6019C21.7627 33.3841 21.5292 33.2778 21.3851 33.1462C21.0224 32.812 21.092 32.4576 21.5789 32.169C21.7975 32.0373 21.9515 31.9918 22.2148 31.9665C22.4086 31.9462 23.8146 31.9361 25.3448 31.9411L28.127 31.9462L28.4649 32.1437Z" fill="#91172C"/>
</svg>
