<svg width="250" height="250" viewBox="0 0 200 200" fill="none" xmlns="http://www.w3.org/2000/svg">
<rect width="200" height="200" fill="#A0A0A0"/>
<path d="M50.7708 54.1691C50.4814 54.3488 50.2541 54.7293 50.2438 55.0676C50.2438 55.1944 50.4504 55.7441 50.6984 56.2832C51.9281 58.9046 53.0338 63.101 53.4575 66.7689C53.6538 68.4389 53.6228 71.9694 53.4058 73.5338C52.7858 77.9205 51.4735 80.859 49.1071 83.1316C48.2287 83.9772 47.9084 84.5691 48.0221 85.1188C48.0531 85.2773 48.3527 85.7213 48.6834 86.1124C50.9981 88.8501 52.8168 94.5474 52.8581 99.2195C52.8788 101.122 52.6825 102.56 52.2485 103.733C51.8145 104.885 51.7938 105.319 52.1865 105.71C52.4035 105.942 52.5998 106.016 53.1062 106.08C53.6848 106.143 53.8295 106.111 54.6975 105.773C56.4336 105.086 59.3063 104.431 61.6417 104.188L62.3443 104.114L61.714 105.234C61.373 105.858 60.784 106.872 60.4016 107.496C57.8699 111.682 57.2706 113.003 56.8986 115.233C56.5059 117.548 56.9192 120.17 58.1283 123.045C59.1409 125.476 60.2776 127.199 62.1067 129.123C65.2171 132.378 69.2471 134.831 79.7357 139.883C88.4675 144.08 92.7249 145.718 97.6747 146.796C99.0697 147.103 101.198 147.06 102.841 146.69C107.471 145.644 111.821 143.932 120.563 139.725C132.623 133.922 136.797 131.11 139.897 126.702C141.21 124.831 142.533 121.745 143.008 119.461C143.266 118.204 143.266 115.804 143.008 114.652C142.595 112.855 141.737 111.016 139.887 107.993C139.494 107.348 138.833 106.238 138.43 105.509C137.552 103.966 137.51 104.029 139.246 104.293C141.851 104.674 143.68 105.128 145.343 105.784C146.17 106.111 146.325 106.143 146.893 106.08C147.689 105.984 148.102 105.636 148.102 105.044C148.102 104.695 147.823 103.796 147.586 103.374C147.348 102.951 147.141 100.985 147.141 99.3252C147.162 94.5052 149.001 88.7338 151.419 85.9644C151.688 85.6473 151.946 85.2668 151.977 85.1188C152.091 84.5797 151.781 83.9983 150.944 83.195C149.105 81.4086 148.03 79.5377 147.255 76.8212C145.932 72.1491 146.118 66.3355 147.751 60.5324C148.123 59.2217 148.981 56.8751 149.404 56.0189C149.859 55.1099 149.849 54.8456 149.394 54.3805L149.022 54L148.278 54.0634C146.614 54.2008 143.597 55.5221 141.603 56.9808C137.304 60.1307 133.491 64.3694 130.711 69.0626C128.861 72.1914 127.043 76.7154 126.082 80.5419C125.947 81.081 125.813 81.5143 125.782 81.5143C125.751 81.5143 125.441 81.1655 125.11 80.7427C124.087 79.4849 121.059 76.3772 119.685 75.2039C117.319 73.1638 113.991 71.1132 111.325 70.0456C109.827 69.4537 108.019 68.9569 106.593 68.7455L105.301 68.5658L104.598 66.1875C103.668 63.0587 103.389 62.3082 102.593 60.7438C101.333 58.2704 100.909 57.7841 99.9997 57.7841C99.0697 57.7841 98.6254 58.3127 97.3027 60.9552C96.5793 62.3928 96.1246 63.6929 94.9983 67.5193L94.6779 68.5869L93.9753 68.6609C89.8419 69.0837 84.8198 71.4515 80.521 75.0031C79.4463 75.891 76.3463 79.0198 75.2199 80.3516C74.7032 80.9647 74.2589 81.4721 74.2176 81.4932C74.1866 81.5038 74.0729 81.1444 73.9696 80.7004C73.4735 78.5018 71.8305 73.9778 70.6835 71.6523C67.8211 65.807 62.7887 59.8982 57.8699 56.6003C55.3279 54.8879 51.6595 53.6406 50.7708 54.1691ZM83.0941 99.3992C84.0241 99.6423 85.1504 100.16 85.9564 100.71C86.5765 101.133 87.7545 102.2 87.7545 102.338C87.7545 102.38 87.4858 102.306 87.1551 102.169C85.2951 101.408 83.3731 101.651 81.668 102.877C80.5623 103.67 79.7873 104.769 79.498 105.984C79.4257 106.27 79.3637 106.946 79.374 107.475C79.3843 110.117 80.893 112.21 83.4144 113.077C84.1997 113.352 85.8324 113.352 86.6178 113.077C87.5478 112.76 88.3538 112.274 88.9532 111.671C89.2632 111.365 89.5112 111.069 89.5112 111.026C89.5112 110.974 89.3768 110.952 89.2218 110.984C88.6948 111.058 88.0438 110.804 87.5891 110.329C86.2251 108.944 87.1035 106.566 88.9738 106.566C89.5835 106.566 90.0899 106.735 90.1725 106.957C90.3275 107.359 90.5445 109.124 90.5445 109.948C90.5445 112.675 89.7489 114.863 87.8888 117.263C87.4031 117.887 87.2171 118.035 86.3801 118.457C85.0988 119.113 83.8587 119.345 82.6497 119.155C80.4177 118.806 79.4877 118.542 77.9376 117.802C77.1626 117.432 76.9353 117.252 76.0673 116.322C74.4656 114.61 73.4839 112.919 72.9569 110.931C72.7812 110.276 72.7399 109.79 72.7295 108.574C72.7295 106.693 72.9465 105.646 73.6905 104.082C74.5586 102.274 75.5299 101.154 77.0179 100.245C78.8263 99.1349 80.986 98.8284 83.0941 99.3992ZM119.985 99.1666C121.762 99.3992 123.281 100.181 124.594 101.545C125.792 102.792 126.588 104.283 127.084 106.196C127.363 107.295 127.342 109.811 127.043 110.921C126.433 113.214 125.141 115.286 123.25 117.03C122.692 117.548 121.235 118.267 120.016 118.626C118.817 118.986 116.812 119.271 116.068 119.197C114.921 119.081 113.63 118.605 112.741 117.971C112.307 117.654 110.984 115.804 110.519 114.863C109.92 113.648 109.455 111.534 109.465 110.054V109.261L109.651 109.747C110.23 111.259 111.573 112.485 113.278 113.077C114.064 113.352 115.696 113.352 116.482 113.077C118.125 112.517 119.478 111.312 120.057 109.895L120.202 109.525L119.819 109.367C118.693 108.881 118.156 107.591 118.641 106.513C118.838 106.058 119.344 105.551 119.757 105.393L119.995 105.297L119.747 104.79C119.344 103.976 118.61 103.13 117.897 102.676C116.327 101.661 114.591 101.492 112.762 102.2L112.09 102.454L112.555 101.968C113.94 100.509 116.027 99.4309 117.959 99.1772C118.889 99.0504 119.034 99.0504 119.985 99.1666ZM107.213 120.878C108.008 121.332 108.267 121.713 108.174 122.263C108.081 122.728 107.43 123.33 106.851 123.478C106.603 123.542 106.086 123.711 105.683 123.859C103.73 124.577 102.593 124.757 99.7414 124.778C97.158 124.799 96.9823 124.768 94.5746 123.922C93.2726 123.468 92.7869 123.246 92.4872 122.971C91.7329 122.273 91.8776 121.533 92.8902 120.931C93.3449 120.656 93.6653 120.561 94.2129 120.508C94.6159 120.466 97.5403 120.445 100.723 120.455L106.51 120.466L107.213 120.878Z" fill="#F8F8F8"/>
</svg>
