<svg width="61" height="28" viewBox="0 0 61 28" fill="none" xmlns="http://www.w3.org/2000/svg">
<path d="M0.0270386 23.2059V1.76444H5.15162V10.6233L15.1944 1.76444H21.1788L13.8187 8.49117L22.3482 23.2059H16.7077L10.4826 12.4251H9.58833L5.15162 16.299V23.2059H0.0270386Z" fill="#E6E6E6"/>
<path d="M27.0232 27.4401H22.9992L33.386 0.413086H37.3068L27.0232 27.4401Z" fill="#E6E6E6"/>
<path d="M55.5069 16.359H60.8379C60.471 18.5412 59.3704 20.293 57.5361 21.6143C55.7248 22.9356 53.409 23.5963 50.5887 23.5963C46.8972 23.5963 44.0082 22.5853 41.9216 20.5632C39.8581 18.5212 38.8263 15.8285 38.8263 12.4852C38.8263 9.14182 39.8695 6.45914 41.956 4.43711C44.0425 2.39507 46.9201 1.37405 50.5887 1.37405C53.2714 1.37405 55.5069 1.98466 57.2954 3.20588C59.0838 4.40708 60.1844 6.00869 60.5971 8.01069H55.2318C54.6586 6.24892 53.1109 5.36804 50.5887 5.36804C48.4793 5.36804 46.8628 6.03871 45.7393 7.38006C44.6387 8.70138 44.0884 10.4031 44.0884 12.4852C44.0884 14.5672 44.6387 16.279 45.7393 17.6203C46.8628 18.9416 48.4793 19.6023 50.5887 19.6023C51.8957 19.6023 52.9733 19.322 53.8217 18.7614C54.693 18.1809 55.2547 17.3801 55.5069 16.359Z" fill="#E6E6E6"/>
</svg>
