<svg width="247" height="44" viewBox="0 0 247 44" fill="none" xmlns="http://www.w3.org/2000/svg">
<path d="M2.84125 33V10.28H12.3773C13.4013 10.28 14.3399 10.4933 15.1933 10.92C16.0466 11.3467 16.7933 11.912 17.4333 12.616C18.0733 13.32 18.5639 14.1093 18.9053 14.984C19.2466 15.8587 19.4173 16.7547 19.4173 17.672C19.4173 18.9307 19.1293 20.136 18.5533 21.288C17.9986 22.4187 17.1986 23.336 16.1533 24.04C15.1293 24.744 13.9346 25.096 12.5693 25.096H6.42525V33H2.84125ZM6.42525 21.928H12.3453C13.0279 21.928 13.6253 21.7467 14.1373 21.384C14.6493 21 15.0439 20.488 15.3213 19.848C15.6199 19.208 15.7693 18.4827 15.7693 17.672C15.7693 16.84 15.5986 16.104 15.2573 15.464C14.9159 14.824 14.4679 14.3333 13.9133 13.992C13.3799 13.6293 12.7933 13.448 12.1533 13.448H6.42525V21.928ZM24.6028 40.104C24.2188 40.104 23.8134 40.0507 23.3868 39.944C22.9601 39.8373 22.5121 39.6773 22.0428 39.464L22.9388 36.84C23.1948 36.968 23.4401 37.064 23.6748 37.128C23.9094 37.192 24.1228 37.224 24.3148 37.224C24.8481 37.224 25.3281 37 25.7548 36.552C26.2028 36.1253 26.5974 35.4747 26.9388 34.6L27.5788 32.872L20.5068 16.264H24.1868L29.3068 29.416L33.8508 16.264H37.2428L29.8828 35.56C29.5201 36.5627 29.0614 37.3947 28.5068 38.056C27.9734 38.7173 27.3761 39.2187 26.7148 39.56C26.0534 39.9227 25.3494 40.104 24.6028 40.104ZM47.9268 33.32C45.1321 33.32 43.0094 32.4773 41.5588 30.792C40.1081 29.1067 39.3828 26.696 39.3828 23.56C39.3828 21.512 39.5534 19.784 39.8948 18.376C40.2574 16.9467 40.7801 15.7733 41.4628 14.856C42.1668 13.9387 43.0308 13.192 44.0548 12.616C45.1001 12.0187 46.3054 11.5387 47.6708 11.176L54.8068 9.192L54.9348 12.136L47.9268 14.12C46.8174 14.4613 45.8681 14.9093 45.0788 15.464C44.3108 16.0187 43.7028 16.744 43.2548 17.64C42.8068 18.5147 42.5081 19.624 42.3588 20.968C42.9561 19.88 43.8094 19.0267 44.9188 18.408C46.0281 17.7893 47.3401 17.48 48.8548 17.48C50.4121 17.48 51.7561 17.8107 52.8868 18.472C54.0174 19.112 54.8921 20.008 55.5108 21.16C56.1294 22.312 56.4388 23.6347 56.4388 25.128C56.4388 26.7493 56.1081 28.1787 55.4468 29.416C54.8068 30.632 53.8468 31.592 52.5668 32.296C51.3081 32.9787 49.7614 33.32 47.9268 33.32ZM47.9268 30.312C49.4841 30.312 50.6894 29.8533 51.5428 28.936C52.4174 28.0187 52.8548 26.8027 52.8548 25.288C52.8548 23.8373 52.4174 22.6533 51.5428 21.736C50.6894 20.7973 49.4841 20.328 47.9268 20.328C47.0094 20.328 46.1774 20.5307 45.4308 20.936C44.6841 21.32 44.0974 21.8853 43.6708 22.632C43.2441 23.3573 43.0308 24.2427 43.0308 25.288C43.0308 26.2693 43.2228 27.144 43.6068 27.912C43.9908 28.6587 44.5454 29.2453 45.2708 29.672C45.9961 30.0987 46.8814 30.312 47.9268 30.312ZM59.612 33V16.296H63.132V28.296L71.612 16.264H74.812V33H71.292V21.256L62.908 33H59.612ZM79.0182 33V16.264H82.5383V22.92H90.3143V16.264H93.8343V33H90.3143V25.96H82.5383V33H79.0182Z" fill="#2A2A2A"/>
<path d="M104.931 37.352V29.832H106.019C106.616 29.832 107.128 29.5973 107.555 29.128C108.003 28.6587 108.376 27.912 108.675 26.888C108.995 25.864 109.24 24.52 109.411 22.856C109.603 21.1707 109.742 19.112 109.827 16.68L109.987 10.28H124.611V29.832H127.491V37.352H124.323V33H108.099V37.352H104.931ZM110.563 29.832H120.995V13.448H113.315L113.219 17.16C113.155 19.6133 113.027 21.6933 112.835 23.4C112.643 25.0853 112.366 26.4507 112.003 27.496C111.64 28.5413 111.16 29.32 110.563 29.832ZM138.29 33.32C136.988 33.32 135.804 33.096 134.738 32.648C133.692 32.1787 132.786 31.5493 132.018 30.76C131.25 29.9493 130.652 29.032 130.226 28.008C129.82 26.9627 129.618 25.8533 129.618 24.68C129.618 23.1013 129.98 21.6613 130.706 20.36C131.431 19.0373 132.444 17.9813 133.746 17.192C135.047 16.3813 136.572 15.976 138.322 15.976C140.071 15.976 141.575 16.3813 142.834 17.192C144.114 17.9813 145.106 19.0267 145.81 20.328C146.514 21.6293 146.866 23.0267 146.866 24.52C146.866 24.776 146.855 25.0213 146.834 25.256C146.812 25.4693 146.791 25.6507 146.77 25.8H133.362C133.426 26.7813 133.692 27.6453 134.162 28.392C134.652 29.1173 135.271 29.6933 136.018 30.12C136.764 30.5253 137.564 30.728 138.418 30.728C139.356 30.728 140.242 30.4933 141.074 30.024C141.927 29.5547 142.503 28.936 142.802 28.168L145.81 29.032C145.447 29.8427 144.892 30.5787 144.146 31.24C143.42 31.88 142.556 32.392 141.554 32.776C140.551 33.1387 139.463 33.32 138.29 33.32ZM133.266 23.464H143.378C143.314 22.504 143.036 21.6613 142.546 20.936C142.076 20.1893 141.468 19.6133 140.722 19.208C139.996 18.7813 139.186 18.568 138.29 18.568C137.415 18.568 136.604 18.7813 135.858 19.208C135.132 19.6133 134.535 20.1893 134.066 20.936C133.596 21.6613 133.33 22.504 133.266 23.464ZM153.705 33V19.368H148.169V16.264H162.793V19.368H157.225V33H153.705ZM165.424 33V16.296H168.945V28.296L177.425 16.264H180.625V33H177.105V21.256L168.721 33H165.424Z" fill="#91172C"/>
<path d="M200.279 0.695965C200.145 0.778591 200.04 0.953568 200.036 1.1091C200.036 1.16743 200.131 1.42017 200.245 1.66805C200.813 2.87345 201.323 4.80305 201.519 6.48962C201.609 7.25758 201.595 8.88097 201.495 9.60031C201.209 11.6174 200.603 12.9686 199.511 14.0136C199.106 14.4024 198.958 14.6746 199.01 14.9274C199.024 15.0003 199.163 15.2044 199.315 15.3842C200.384 16.6431 201.223 19.2629 201.242 21.4112C201.252 22.2861 201.161 22.9471 200.961 23.4866C200.761 24.0164 200.751 24.2157 200.932 24.3955C201.032 24.5025 201.123 24.5365 201.357 24.5656C201.624 24.5948 201.691 24.5802 202.091 24.4247C202.892 24.1088 204.218 23.8074 205.296 23.6956L205.62 23.6616L205.33 24.1768C205.172 24.4636 204.9 24.9302 204.724 25.2169C203.555 27.1417 203.279 27.7492 203.107 28.7748C202.926 29.8392 203.117 31.0446 203.675 32.3667C204.142 33.4846 204.667 34.2768 205.511 35.1614C206.946 36.6584 208.806 37.7861 213.647 40.1094C217.677 42.039 219.642 42.7923 221.927 43.2881C222.571 43.429 223.553 43.4096 224.311 43.2395C226.448 42.7583 228.456 41.9709 232.491 40.0365C238.057 37.3681 239.983 36.0752 241.414 34.0484C242.02 33.1881 242.63 31.7688 242.85 30.719C242.969 30.1406 242.969 29.0373 242.85 28.5075C242.659 27.6812 242.263 26.8355 241.409 25.4454C241.228 25.1489 240.923 24.6385 240.737 24.3032C240.332 23.5935 240.313 23.6227 241.114 23.7442C242.316 23.9192 243.16 24.1282 243.928 24.4295C244.309 24.5802 244.381 24.5948 244.643 24.5656C245.01 24.5219 245.201 24.3615 245.201 24.0893C245.201 23.9289 245.072 23.5158 244.963 23.3214C244.853 23.1269 244.758 22.2229 244.758 21.4598C244.767 19.2434 245.616 16.5896 246.732 15.3162C246.856 15.1704 246.975 14.9954 246.99 14.9274C247.042 14.6795 246.899 14.4122 246.513 14.0428C245.664 13.2213 245.168 12.361 244.81 11.1119C244.2 8.96359 244.285 6.29034 245.039 3.62196C245.211 3.01926 245.606 1.94024 245.802 1.54654C246.012 1.12854 246.007 1.00703 245.797 0.793175L245.626 0.618198L245.282 0.647358C244.514 0.710545 243.122 1.3181 242.201 1.98884C240.217 3.43726 238.457 5.3863 237.174 7.54434C236.321 8.98304 235.481 11.0633 235.038 12.8228C234.976 13.0707 234.914 13.27 234.899 13.27C234.885 13.27 234.742 13.1096 234.589 12.9151C234.117 12.3367 232.72 10.9078 232.085 10.3683C230.993 9.43019 229.458 8.48727 228.227 7.99636C227.535 7.72418 226.701 7.49574 226.043 7.39853L225.447 7.3159L225.122 6.2223C224.693 4.7836 224.564 4.43851 224.197 3.71917C223.615 2.58182 223.42 2.35824 223 2.35824C222.571 2.35824 222.366 2.60126 221.755 3.81638C221.421 4.4774 221.211 5.07523 220.692 6.83472L220.544 7.32562L220.219 7.35965C218.312 7.55406 215.994 8.6428 214.01 10.2759C213.514 10.6842 212.083 12.1229 211.563 12.7353C211.325 13.0172 211.119 13.2505 211.1 13.2602C211.086 13.2651 211.034 13.0998 210.986 12.8957C210.757 11.8847 209.999 9.80445 209.469 8.73515C208.148 6.04732 205.826 3.33033 203.555 1.81387C202.382 1.02647 200.689 0.452942 200.279 0.695965ZM215.197 21.4938C215.626 21.6056 216.146 21.8438 216.518 22.0965C216.805 22.2909 217.348 22.7819 217.348 22.845C217.348 22.8645 217.224 22.8305 217.072 22.7673C216.213 22.4173 215.326 22.5291 214.539 23.0929C214.029 23.4575 213.671 23.9629 213.538 24.5219C213.504 24.6531 213.476 24.9642 213.48 25.2072C213.485 26.4223 214.181 27.3847 215.345 27.7833C215.708 27.9096 216.461 27.9096 216.824 27.7833C217.253 27.6374 217.625 27.4139 217.901 27.1368C218.045 26.9959 218.159 26.8598 218.159 26.8403C218.159 26.816 218.097 26.8063 218.025 26.8209C217.782 26.8549 217.482 26.7383 217.272 26.5195C216.642 25.8828 217.048 24.7892 217.911 24.7892C218.192 24.7892 218.426 24.867 218.464 24.9691C218.536 25.1538 218.636 25.9654 218.636 26.3446C218.636 27.5986 218.269 28.6047 217.41 29.708C217.186 29.9948 217.1 30.0628 216.714 30.2572C216.123 30.5586 215.55 30.6655 214.992 30.578C213.962 30.4176 213.533 30.2961 212.817 29.9559C212.46 29.7858 212.355 29.7031 211.954 29.2754C211.215 28.488 210.762 27.7103 210.519 26.7966C210.437 26.4952 210.418 26.2717 210.414 25.7127C210.414 24.8475 210.514 24.3664 210.857 23.647C211.258 22.8159 211.706 22.3007 212.393 21.8827C213.228 21.3723 214.224 21.2314 215.197 21.4938ZM232.224 21.3869C233.044 21.4938 233.745 21.8535 234.351 22.4805C234.904 23.054 235.271 23.7394 235.5 24.6191C235.629 25.1246 235.619 26.2814 235.481 26.7917C235.2 27.8464 234.604 28.7991 233.731 29.6011C233.473 29.8392 232.801 30.1697 232.238 30.335C231.685 30.5002 230.76 30.6315 230.416 30.5975C229.887 30.544 229.291 30.3253 228.88 30.0336C228.68 29.8878 228.07 29.0373 227.855 28.6047C227.578 28.0457 227.364 27.0736 227.369 26.3932V26.0286L227.454 26.2522C227.721 26.9473 228.342 27.5111 229.128 27.7833C229.491 27.9096 230.244 27.9096 230.607 27.7833C231.365 27.5257 231.99 26.9716 232.257 26.3203L232.324 26.1501L232.147 26.0772C231.628 25.8537 231.38 25.2607 231.604 24.7649C231.694 24.5559 231.928 24.3226 232.119 24.2497L232.229 24.206L232.114 23.9727C231.928 23.5984 231.589 23.2096 231.26 23.0006C230.535 22.534 229.734 22.4562 228.89 22.7819L228.58 22.8985L228.795 22.6749C229.434 22.0042 230.397 21.5084 231.289 21.3918C231.718 21.3334 231.785 21.3334 232.224 21.3869ZM226.329 31.3703C226.696 31.5793 226.815 31.7542 226.772 32.007C226.729 32.2208 226.429 32.4979 226.162 32.5659C226.047 32.5951 225.809 32.6729 225.623 32.7409C224.722 33.0714 224.197 33.1541 222.881 33.1638C221.688 33.1735 221.607 33.1589 220.496 32.7701C219.895 32.5611 219.671 32.459 219.533 32.3326C219.184 32.0118 219.251 31.6716 219.719 31.3946C219.928 31.2682 220.076 31.2245 220.329 31.2002C220.515 31.1807 221.865 31.171 223.334 31.1759L226.005 31.1807L226.329 31.3703Z" fill="#91172C"/>
</svg>
