<svg width="34" height="34" viewBox="0 0 34 34" fill="none" xmlns="http://www.w3.org/2000/svg">
<path fill-rule="evenodd" clip-rule="evenodd" d="M17.0001 1.41675C8.39383 1.41675 1.41675 8.39383 1.41675 17.0001C1.41675 25.6063 8.39383 32.5834 17.0001 32.5834C25.6063 32.5834 32.5834 25.6063 32.5834 17.0001C32.5834 8.39383 25.6063 1.41675 17.0001 1.41675ZM16.2917 8.50008C15.916 8.50008 15.5557 8.64934 15.29 8.91501C15.0243 9.18069 14.8751 9.54102 14.8751 9.91675C14.8751 10.2925 15.0243 10.6528 15.29 10.9185C15.5557 11.1842 15.916 11.3334 16.2917 11.3334H17.0001C17.3758 11.3334 17.7361 11.1842 18.0018 10.9185C18.2675 10.6528 18.4167 10.2925 18.4167 9.91675C18.4167 9.54102 18.2675 9.18069 18.0018 8.91501C17.7361 8.64934 17.3758 8.50008 17.0001 8.50008H16.2917ZM14.1667 14.1667C13.791 14.1667 13.4307 14.316 13.165 14.5817C12.8993 14.8474 12.7501 15.2077 12.7501 15.5834C12.7501 15.9591 12.8993 16.3195 13.165 16.5851C13.4307 16.8508 13.791 17.0001 14.1667 17.0001H15.5834V21.2501H14.1667C13.791 21.2501 13.4307 21.3993 13.165 21.665C12.8993 21.9307 12.7501 22.291 12.7501 22.6667C12.7501 23.0425 12.8993 23.4028 13.165 23.6685C13.4307 23.9342 13.791 24.0834 14.1667 24.0834H19.8334C20.2091 24.0834 20.5695 23.9342 20.8351 23.6685C21.1008 23.4028 21.2501 23.0425 21.2501 22.6667C21.2501 22.291 21.1008 21.9307 20.8351 21.665C20.5695 21.3993 20.2091 21.2501 19.8334 21.2501H18.4167V15.5834C18.4167 15.2077 18.2675 14.8474 18.0018 14.5817C17.7361 14.316 17.3758 14.1667 17.0001 14.1667H14.1667Z" fill="#2A2A2A"/>
</svg>
