<svg width="25" height="24" viewBox="0 0 25 24" fill="none" xmlns="http://www.w3.org/2000/svg">
<path d="M19.5 3H5.5C4.39543 3 3.5 3.89543 3.5 5V19C3.5 20.1046 4.39543 21 5.5 21H19.5C20.6046 21 21.5 20.1046 21.5 19V5C21.5 3.89543 20.6046 3 19.5 3Z" stroke="white" stroke-width="2" stroke-linecap="round" stroke-linejoin="round"/>
<path d="M9.5 11C10.6046 11 11.5 10.1046 11.5 9C11.5 7.89543 10.6046 7 9.5 7C8.39543 7 7.5 7.89543 7.5 9C7.5 10.1046 8.39543 11 9.5 11Z" stroke="white" stroke-width="2" stroke-linecap="round" stroke-linejoin="round"/>
<path d="M21.5 15.0002L18.414 11.9142C18.0389 11.5392 17.5303 11.3286 17 11.3286C16.4697 11.3286 15.9611 11.5392 15.586 11.9142L6.5 21.0002" stroke="white" stroke-width="2" stroke-linecap="round" stroke-linejoin="round"/>
</svg>
