<svg width="24" height="24" viewBox="0 0 24 24" fill="none" xmlns="http://www.w3.org/2000/svg">
<path d="M20.5417 6H3.45833C2.65833 6 2 6.66526 2 7.47368V10.4211C2 11.2295 2.65833 11.8947 3.45833 11.8947H20.5417C21.3417 11.8947 22 11.2295 22 10.4211V7.47368C22 6.66526 21.3417 6 20.5417 6ZM4.29167 13.1579H3.66667V19.6842C3.66667 20.9642 4.69167 22 5.95833 22H11.375V13.1579H4.91667H4.29167ZM19.0833 13.1579H12.625V22H18.0417C19.3083 22 20.3333 20.9642 20.3333 19.6842V13.1579H19.7083H19.0833Z" fill="#2A2A2A"/>
<path d="M16.2945 2.60322C15.3836 1.79933 13.7973 1.79933 12.8882 2.60322C12.5564 2.89635 12.2536 3.5051 12 4.15239C11.7464 3.5051 11.4436 2.89635 11.1118 2.60322C10.2027 1.79852 8.61636 1.79933 7.70545 2.60322C7.25 3.00477 7 3.53883 7 4.10742C7 4.67601 7.25 5.21087 7.70545 5.61242C8.46182 6.2806 11.0709 6.83152 11.8527 6.98411C11.9494 7.00502 12.0504 7.0053 12.1473 6.98491C12.9282 6.83232 15.5373 6.2806 16.2945 5.61322C16.75 5.21168 17 4.67682 17 4.10822C17 3.53963 16.75 3.00477 16.2945 2.60322ZM8.67 4.76114C8.47273 4.58687 8.36364 4.35477 8.36364 4.10742C8.36364 3.86007 8.47182 3.62958 8.67 3.4545C8.86818 3.27943 9.13 3.18467 9.40909 3.18467C9.68818 3.18467 9.95091 3.28104 10.1473 3.4545C10.3882 3.66733 10.7609 4.59088 11.0645 5.57066C9.95636 5.30243 8.91091 4.97396 8.67 4.76114ZM15.33 4.76114C15.0891 4.97316 14.0436 5.30243 12.9345 5.57066C13.2382 4.59088 13.6109 3.66733 13.8518 3.4545C14.0491 3.28023 14.3118 3.18467 14.59 3.18467C14.87 3.18467 15.1318 3.28104 15.3291 3.45531C15.5264 3.62958 15.6364 3.86087 15.6364 4.10742C15.6364 4.35397 15.5273 4.58687 15.33 4.76114Z" fill="#2A2A2A"/>
</svg>
