<svg width="24" height="24" viewBox="0 0 24 24" fill="none" xmlns="http://www.w3.org/2000/svg">
<path d="M6.59961 11.4003C6.59961 8.67412 6.59961 7.31103 7.44314 6.46411C8.28667 5.61719 9.64432 5.61719 12.3596 5.61719H15.2396C17.9549 5.61719 19.3125 5.61719 20.1561 6.46411C20.9996 7.31103 20.9996 8.67413 20.9996 11.4003V16.2196C20.9996 18.9458 20.9996 20.3089 20.1561 21.1558C19.3125 22.0027 17.9549 22.0027 15.2396 22.0027H12.3596C9.64432 22.0027 8.28667 22.0027 7.44314 21.1558C6.59961 20.3089 6.59961 18.9458 6.59961 16.2196V11.4003Z" fill="#A0A0A0"/>
<path opacity="0.5" d="M4.17157 3.17157C3 4.34315 3 6.22876 3 10V12C3 15.7712 3 17.6569 4.17157 18.8284C4.78913 19.446 5.6051 19.738 6.79105 19.8761C6.59961 19.0353 6.59961 17.8796 6.59961 16.2167V11.3974C6.59961 8.6712 6.59961 7.3081 7.44314 6.46118C8.28667 5.61426 9.64432 5.61426 12.3596 5.61426H15.2396C16.8915 5.61426 18.0409 5.61426 18.8777 5.80494C18.7403 4.61146 18.4484 3.79154 17.8284 3.17157C16.6569 2 14.7712 2 11 2C7.22876 2 5.34315 2 4.17157 3.17157Z" fill="#A0A0A0"/>
</svg>
