<svg width="24" height="24" viewBox="0 0 24 24" fill="none" xmlns="http://www.w3.org/2000/svg">
<path fill-rule="evenodd" clip-rule="evenodd" d="M3.01124 8.50391C2.89957 8.5039 2.79003 8.53441 2.69444 8.59213C2.59885 8.64986 2.52086 8.7326 2.46888 8.83143C2.4169 8.93026 2.39291 9.04142 2.39951 9.15289C2.40611 9.26436 2.44304 9.3719 2.50632 9.46391L11.4936 22.5363C11.5499 22.6182 11.6253 22.6852 11.7133 22.7314C11.8012 22.7777 11.8991 22.8019 11.9985 22.8019C12.0979 22.8019 12.1958 22.7777 12.2838 22.7314C12.3717 22.6852 12.4471 22.6182 12.5034 22.5363L21.4907 9.46391C21.554 9.3719 21.5909 9.26436 21.5975 9.15289C21.6041 9.04142 21.5801 8.93026 21.5282 8.83143C21.4762 8.7326 21.3982 8.64986 21.3026 8.59213C21.207 8.53441 21.0975 8.5039 20.9858 8.50391H3.01124Z" fill="#9D0000"/>
<path fill-rule="evenodd" clip-rule="evenodd" d="M7.0961 3.60156C7.00629 3.6016 6.91758 3.62137 6.83625 3.65949C6.75493 3.69762 6.68298 3.75315 6.6255 3.82216L2.54037 8.72431C2.46585 8.81378 2.41837 8.92262 2.40347 9.0381C2.38858 9.15358 2.40689 9.27091 2.45627 9.37635C2.50565 9.4818 2.58405 9.57099 2.68229 9.63349C2.78053 9.69599 2.89454 9.72921 3.01098 9.72925H20.9855C21.102 9.72921 21.216 9.69599 21.3142 9.63349C21.4125 9.57099 21.4909 9.4818 21.5402 9.37635C21.5896 9.27091 21.6079 9.15358 21.593 9.0381C21.5781 8.92262 21.5307 8.81378 21.4561 8.72431L17.371 3.82216C17.3135 3.75315 17.2416 3.69762 17.1603 3.65949C17.0789 3.62137 16.9902 3.6016 16.9004 3.60156H7.0961Z" fill="#E11F1F"/>
<path fill-rule="evenodd" clip-rule="evenodd" d="M7.09684 8.50391C6.99788 8.50396 6.9004 8.52797 6.81274 8.5739C6.72509 8.61983 6.64986 8.68631 6.59349 8.76765C6.53712 8.84899 6.5013 8.94277 6.48907 9.04097C6.47684 9.13917 6.48858 9.23888 6.52329 9.33155L11.4254 22.404C11.4693 22.5206 11.5477 22.6211 11.6502 22.6921C11.7527 22.763 11.8743 22.801 11.999 22.801C12.1236 22.801 12.2453 22.763 12.3478 22.6921C12.4503 22.6211 12.5287 22.5206 12.5725 22.404L17.4747 9.33155C17.5094 9.23888 17.5211 9.13917 17.5089 9.04097C17.4967 8.94277 17.4609 8.84899 17.4045 8.76765C17.3481 8.68631 17.2729 8.61983 17.1852 8.5739C17.0976 8.52797 17.0001 8.50396 16.9011 8.50391H7.09684Z" fill="#E11F1F"/>
<path fill-rule="evenodd" clip-rule="evenodd" d="M7.09714 3.60156H16.9014C17.064 3.60156 17.2198 3.66612 17.3347 3.78104C17.4497 3.89595 17.5142 4.05181 17.5142 4.21433V9.11648C17.5141 9.2376 17.4781 9.35597 17.4108 9.45663C17.3434 9.55731 17.2478 9.63576 17.1359 9.6821C17.024 9.72843 16.9008 9.74057 16.782 9.71697C16.6633 9.69337 16.5541 9.63509 16.4684 9.5495L11.9993 5.08038L7.53017 9.5495C7.44447 9.63509 7.33534 9.69337 7.21654 9.71697C7.09775 9.74057 6.97462 9.72843 6.86272 9.6821C6.75082 9.63576 6.65516 9.55731 6.58782 9.45663C6.52048 9.35597 6.48448 9.2376 6.48438 9.11648V4.21433C6.48438 4.05181 6.54893 3.89595 6.66385 3.78104C6.77877 3.66612 6.93463 3.60156 7.09714 3.60156Z" fill="#9D0000"/>
</svg>
