<svg width="24" height="24" viewBox="0 0 24 24" fill="none" xmlns="http://www.w3.org/2000/svg">
<g clip-path="url(#clip0_3198_24185)">
<path fill-rule="evenodd" clip-rule="evenodd" d="M4.53333 5.73478C4.42547 5.70587 4.31176 5.70699 4.20449 5.738C4.09722 5.76902 4.00046 5.82876 3.92467 5.91077C3.84889 5.99278 3.79695 6.09394 3.77447 6.20332C3.752 6.3127 3.75983 6.42614 3.79714 6.53139L9.0948 21.4844C9.12799 21.5781 9.18348 21.6623 9.25647 21.7298C9.32947 21.7972 9.41777 21.8459 9.51378 21.8717C9.60978 21.8974 9.7106 21.8994 9.80754 21.8774C9.90448 21.8555 9.99464 21.8103 10.0702 21.7458L22.1347 11.4449C22.2196 11.3724 22.2831 11.2781 22.3183 11.1721C22.3536 11.0662 22.3592 10.9526 22.3345 10.8437C22.3099 10.7348 22.256 10.6346 22.1786 10.5541C22.1012 10.4736 22.0033 10.4158 21.8954 10.3869L4.53333 5.73478Z" fill="#9D0000"/>
<path fill-rule="evenodd" clip-rule="evenodd" d="M9.74853 2.05764C9.66177 2.03443 9.57096 2.03057 9.48254 2.04635C9.39412 2.06212 9.31025 2.09714 9.23687 2.14892L4.02217 5.82673C3.92703 5.89386 3.853 5.9867 3.80872 6.09439C3.76445 6.20208 3.75177 6.32015 3.77218 6.43479C3.79258 6.54942 3.84522 6.65587 3.92394 6.74166C4.00266 6.82746 4.10419 6.88905 4.21664 6.91923L21.5787 11.5714C21.6912 11.6015 21.8099 11.5989 21.921 11.564C22.0321 11.529 22.1309 11.4632 22.2059 11.3741C22.2809 11.285 22.3289 11.1764 22.3444 11.061C22.3599 10.9456 22.3422 10.8282 22.2934 10.7225L19.6162 4.93006C19.5786 4.84853 19.5234 4.77626 19.4548 4.71839C19.3861 4.66052 19.3055 4.61846 19.2188 4.59518L9.74853 2.05764Z" fill="#E11F1F"/>
<path fill-rule="evenodd" clip-rule="evenodd" d="M8.48222 6.79328C8.38662 6.76772 8.28625 6.76569 8.18969 6.78736C8.09313 6.80904 8.00326 6.85378 7.92776 6.91776C7.85226 6.98174 7.79338 7.06305 7.75616 7.15474C7.71893 7.24644 7.70447 7.34578 7.714 7.44428L9.06573 21.34C9.07791 21.4641 9.12763 21.5814 9.20825 21.6765C9.28888 21.7715 9.39657 21.8398 9.51696 21.872C9.63736 21.9043 9.76472 21.899 9.88207 21.857C9.99942 21.815 10.1012 21.7382 10.1737 21.6369L18.2922 10.2787C18.3497 10.1982 18.3869 10.1049 18.4005 10.0069C18.4141 9.90887 18.4038 9.80901 18.3704 9.71585C18.337 9.6227 18.2815 9.53901 18.2087 9.47196C18.136 9.40491 18.048 9.35648 17.9524 9.33082L8.48222 6.79328Z" fill="#E11F1F"/>
<path fill-rule="evenodd" clip-rule="evenodd" d="M9.74814 2.05703L19.2184 4.59457C19.3753 4.63664 19.5092 4.73933 19.5904 4.88008C19.6717 5.02082 19.6937 5.18808 19.6517 5.34506L18.3829 10.0802C18.3514 10.1971 18.286 10.3022 18.1949 10.382C18.1038 10.4618 17.9911 10.5128 17.871 10.5286C17.751 10.5444 17.6289 10.5242 17.5203 10.4707C17.4116 10.4172 17.3213 10.3326 17.2607 10.2278L14.1005 4.75423L8.62697 7.91438C8.52204 7.97487 8.40154 8.00291 8.28069 7.99496C8.15983 7.98701 8.04404 7.94342 7.94795 7.8697C7.85185 7.79599 7.77975 7.69544 7.74076 7.58077C7.70177 7.46611 7.69764 7.34246 7.72888 7.22544L8.99765 2.49033C9.03972 2.33335 9.14242 2.19951 9.28316 2.11825C9.4239 2.03699 9.59116 2.01497 9.74814 2.05703Z" fill="#9D0000"/>
</g>
<defs>
<clipPath id="clip0_3198_24185">
<rect width="24" height="24" fill="white"/>
</clipPath>
</defs>
</svg>
