<svg width="21" height="20" viewBox="0 0 21 20" fill="none" xmlns="http://www.w3.org/2000/svg">
<path fill-rule="evenodd" clip-rule="evenodd" d="M1.51124 5.5C1.39957 5.49999 1.29003 5.5305 1.19444 5.58823C1.09885 5.64595 1.02086 5.7287 0.968876 5.82753C0.916896 5.92636 0.89291 6.03751 0.899509 6.14898C0.906107 6.26045 0.94304 6.368 1.00632 6.46L9.99359 19.5324C10.0499 19.6143 10.1253 19.6813 10.2133 19.7275C10.3012 19.7738 10.3991 19.798 10.4985 19.798C10.5979 19.798 10.6958 19.7738 10.7838 19.7275C10.8717 19.6813 10.9471 19.6143 11.0034 19.5324L19.9907 6.46C20.054 6.368 20.0909 6.26045 20.0975 6.14898C20.1041 6.03751 20.0801 5.92636 20.0282 5.82753C19.9762 5.7287 19.8982 5.64595 19.8026 5.58823C19.707 5.5305 19.5975 5.49999 19.4858 5.5H1.51124Z" fill="#9D0000"/>
<path fill-rule="evenodd" clip-rule="evenodd" d="M5.5961 0.601562C5.50629 0.601596 5.41758 0.621373 5.33625 0.659494C5.25493 0.697615 5.18298 0.753147 5.1255 0.822159L1.04037 5.72431C0.965852 5.81378 0.918366 5.92262 0.903472 6.0381C0.888578 6.15358 0.906893 6.27091 0.956272 6.37635C1.00565 6.4818 1.08405 6.57099 1.18229 6.63349C1.28053 6.69599 1.39454 6.72921 1.51098 6.72925H19.4855C19.602 6.72921 19.716 6.69599 19.8142 6.63349C19.9125 6.57099 19.9909 6.4818 20.0402 6.37635C20.0896 6.27091 20.1079 6.15358 20.093 6.0381C20.0781 5.92262 20.0307 5.81378 19.9561 5.72431L15.871 0.822159C15.8135 0.753147 15.7416 0.697615 15.6603 0.659494C15.5789 0.621373 15.4902 0.601596 15.4004 0.601562H5.5961Z" fill="#E11F1F"/>
<path fill-rule="evenodd" clip-rule="evenodd" d="M5.59684 5.5C5.49788 5.50005 5.4004 5.52407 5.31274 5.57C5.22509 5.61593 5.14986 5.6824 5.09349 5.76374C5.03712 5.84508 5.0013 5.93886 4.98907 6.03706C4.97684 6.13527 4.98858 6.23497 5.02329 6.32765L9.92544 19.4C9.96931 19.5167 10.0477 19.6172 10.1502 19.6882C10.2527 19.7591 10.3743 19.7971 10.499 19.7971C10.6236 19.7971 10.7453 19.7591 10.8478 19.6882C10.9503 19.6172 11.0287 19.5167 11.0725 19.4L15.9747 6.32765C16.0094 6.23497 16.0211 6.13527 16.0089 6.03706C15.9967 5.93886 15.9609 5.84508 15.9045 5.76374C15.8481 5.6824 15.7729 5.61593 15.6852 5.57C15.5976 5.52407 15.5001 5.50005 15.4011 5.5H5.59684Z" fill="#E11F1F"/>
<path fill-rule="evenodd" clip-rule="evenodd" d="M5.59714 0.601562H15.4014C15.564 0.601563 15.7198 0.666122 15.8347 0.781038C15.9497 0.895955 16.0142 1.05181 16.0142 1.21433V6.11648C16.0141 6.2376 15.9781 6.35597 15.9108 6.45663C15.8434 6.55731 15.7478 6.63576 15.6359 6.6821C15.524 6.72843 15.4008 6.74057 15.282 6.71697C15.1633 6.69337 15.0541 6.63509 14.9684 6.5495L10.4993 2.08038L6.03017 6.5495C5.94447 6.63509 5.83534 6.69337 5.71654 6.71697C5.59775 6.74057 5.47462 6.72843 5.36272 6.6821C5.25082 6.63576 5.15516 6.55731 5.08782 6.45663C5.02048 6.35597 4.98448 6.2376 4.98438 6.11648V1.21433C4.98438 1.05181 5.04893 0.895955 5.16385 0.781038C5.27877 0.666122 5.43463 0.601563 5.59714 0.601562Z" fill="#9D0000"/>
</svg>
