<svg width="24" height="24" viewBox="0 0 24 24" fill="none" xmlns="http://www.w3.org/2000/svg">
<path d="M22.6177 10.6119L14.9516 3.17121C14.8561 3.07887 14.7357 3.01656 14.6052 2.99203C14.4747 2.9675 14.3399 2.98182 14.2174 3.03322C14.0951 3.08519 13.9907 3.17197 13.9173 3.28277C13.8438 3.39357 13.8046 3.5235 13.8044 3.65643V7.49132C6.82093 7.61217 1.17773 13.3302 1.17773 20.3416C1.17773 20.6501 1.39509 20.9026 1.69362 20.9802C1.7458 20.9934 1.79943 21.0001 1.85326 21C1.97822 20.9984 2.10055 20.9639 2.20791 20.8999C2.31527 20.8359 2.40386 20.7448 2.46475 20.6356C3.45956 18.8389 4.91725 17.3414 6.68643 16.2984C8.45561 15.2555 10.4717 14.7052 12.5255 14.7047H13.8044V18.5378C13.8044 18.8093 13.9676 19.0546 14.2174 19.161C14.3399 19.2124 14.4747 19.2267 14.6052 19.2022C14.7357 19.1777 14.8561 19.1154 14.9516 19.023L22.6177 11.5823C22.683 11.5195 22.7349 11.4441 22.7703 11.3608C22.8058 11.2774 22.8241 11.1877 22.8241 11.0971C22.8241 11.0065 22.8058 10.9169 22.7703 10.8335C22.7349 10.7501 22.683 10.6748 22.6177 10.6119Z" fill="#2A2A2A"/>
</svg>
