<svg width="22" height="24" viewBox="0 0 22 24" fill="none" xmlns="http://www.w3.org/2000/svg">
<path d="M20.7341 5.62246C19.4738 5.36615 18.3324 4.7338 17.4766 3.81761C16.6207 2.90141 16.095 1.74926 15.9761 0.529131V0H11.6283V16.4043C11.6256 17.1305 11.3836 17.8377 10.9364 18.4264C10.4891 19.0152 9.85909 19.4559 9.13477 19.6867C8.41046 19.9174 7.62829 19.9267 6.89819 19.713C6.16809 19.4994 5.52674 19.0736 5.06429 18.4956C4.59465 17.9079 4.33413 17.1932 4.3205 16.4553C4.30688 15.7173 4.54086 14.9944 4.98852 14.3914C5.43618 13.7884 6.07424 13.3366 6.81017 13.1016C7.5461 12.8666 8.34165 12.8605 9.08145 13.0843V8.88484C7.43174 8.66803 5.75201 8.94686 4.27719 9.68233C2.80238 10.4178 1.60626 11.5731 0.856138 12.9867C0.106013 14.4003 -0.160596 16.0015 0.0936016 17.5662C0.347799 19.1309 1.11009 20.581 2.27385 21.7136C3.38366 22.7931 4.80668 23.5338 6.36126 23.841C7.91584 24.1483 9.53146 24.0081 11.0019 23.4385C12.4723 22.8689 13.7308 21.8956 14.6168 20.6429C15.5028 19.3902 15.976 17.915 15.9761 16.4055V8.02335C17.7333 9.2176 19.84 9.85796 22 9.85431V5.74725C21.5746 5.74775 21.1504 5.70592 20.7341 5.62246Z" fill="#2A2A2A"/>
</svg>
