<svg width="28" height="20" viewBox="0 0 28 20" fill="none" xmlns="http://www.w3.org/2000/svg">
<path d="M27.3805 2.85766L27.4155 3.08825C27.2559 2.50147 26.9506 1.9654 26.5285 1.53065C26.1063 1.0959 25.5813 0.776823 25.0029 0.603545L24.9784 0.597663C22.7956 1.61283e-05 14.0118 1.62589e-05 14.0118 1.62589e-05C14.0118 1.62589e-05 5.25028 -0.0117486 3.04531 0.597663C2.46592 0.766751 1.93878 1.08187 1.51361 1.51329C1.08844 1.94472 0.779238 2.47824 0.615169 3.06354L0.609336 3.08825C-0.206154 7.38354 -0.211988 12.5447 0.645502 17.1435L0.609336 16.9106C0.768954 17.4974 1.07425 18.0334 1.49638 18.4682C1.91852 18.9029 2.44358 19.222 3.02197 19.3953L3.04647 19.4012C5.22695 20 14.013 20 14.013 20C14.013 20 22.7734 20 24.9795 19.4012C25.5592 19.2324 26.0866 18.9174 26.512 18.4859C26.9374 18.0545 27.2468 17.5208 27.4108 16.9353L27.4167 16.9106C27.7877 14.9129 28 12.6141 28 10.2659L27.9988 10.0059L28 9.7353C28 7.38589 27.7877 5.08707 27.3805 2.85766ZM11.2095 14.2953V5.71531L18.5198 10.0118L11.2095 14.2953Z" fill="#2A2A2A"/>
</svg>
